Release Group: D-Z0N3
Container: MKV
Format: x264
Resolution: 1080p
Source Media: Blu-Ray
Audio Format: DTS
Audio Channels: 6
Audio Bitrate: 1510
Subtitles Eng, Tur, Chs, Cze, Dut, Ger, Gre, Hun, Nor, Pol, Rum, Srp, Spa, Swe



D-Z0N3 Proudly Presents

~~~~~~~~~~~~~~~~~~~~~~~~~~~~~~~~~~~~
Fight Club (1999) 

10th Anniversary Edition
~~~~~~~~~~~~~~~~~~~~~~~~~~~~~~~~~~~~



General Info
-----------------------
Genre: Drama | Mystery | Thriller 
IMDB Ratings: 8.8/10 (409,249 votes) Imdb Top 250: #14
FileSize: 12.8 GB
Runtime: 02:19:08 min 
Encode Date: 13.02.2011
Release Date: 16.02.2011


Technical Specs
-----------------------
Video Container: Matroska
Video Encoder: x264
Encoding Type: 2 Pass - High@L4.1
DXVA Compliancy: Yes
Header Compression: None
Video Aspect Ratio: 2.40:1 [1920x800 pxls]
Video Bitrate: 11.4 Mbit
Frame Rate: 23.976 FPS
Audio 1st: 1510 Kbps DTS 6 chnls Core English DTSHD-MA
Audio 2nd.: English 64 kbps AC3 Director's Commentary
Audio 3rd: English 64 Kbps AC3 Dir's Comm + Brad Pitt, Edward Norton and Helena Bonham
Audio 4th: English 64 Kbps AC3 Screenwriter & Novelist's Commentary (English)
Audio 5th: English 64 Kbps AC3 Commentary by Director of Photography
Subtitles: Eng, Tur, Chs, Cze, Dut, Ger, Gre, Hun, Nor, Pol, Rum, Srp, Spa, Swe + 
English subs for Audio tracks No: 2, 3, 4 and 5.
Chapters Menu: Included, Titled.
Source: Fight.Club.10th.Anniversary.Edition.1999.Blu-ray.CEE.1080p.AVC.DTS.5.1



General
Unique ID: 174873740687520023836706922603699729733 (0x838F75160CDE21DDA0206F0F18277545)
Complete Name: Fight.Club.1999.1080p.10th.Ann.Edt.BluRay.DTS.x264.D-Z0N3.mkv
Format: Matroska
File Size: 12.8 GiB
Duration: 2h 19mn
Overall bit rate : 13.2 Mbps
Encoded date: UTC 2011-02-14 12:31:50
Writing application: mkvmerge v4.0.0 ('The Stars were mine') built on Jun6 2010 16:18:42
Writing library: libebml v1.0.0 + libmatroska v1.0.0

Video
ID: 1
Format: AVC
Format/Info : Advanced Video Codec
Format profile : High@L4.1
Format settings, CABAC : Yes
Format settings, ReFrames: 5 frames
Codec ID: V_MPEG4/ISO/AVC
Duration: 2h 19mn
Bit rate: 11.4 Mbps
Width: 1 920 pixels
Height: 800 pixels
Display aspect ratio: 2.40:1
Frame Rate: 23.976 fps
Color space: YUV
Chroma subsampling: 4:2:0
Bit depth: 8 bits
Scan Type : Progressive
Bits/(Pixel*Frame): 0.311
Stream size: 10.9 GiB (85%)
Title : D-Z0N3 HD VIDEO @ Fight Club 1999 10th Anniversary Edition 1080p D-Z0N3
Writing library: x264 core 113 r1884 7313bb5

Encoding settings: 
cabac=1 / ref=5 / deblock=1:-3:-3 / analyse=0x3:0x113 / me=umh / subme=10 / 
psy=1 / psy_rd=1.00:0.00 / mixed_ref=0 / me_range=64 / chroma_me=1 / 
trellis=2 / 8x8dct=1 / cqm=0 / deadzone=21,11 / fast_pskip=0 / chroma_qp_offset=-2 / 
threads=12 / sliced_threads=0 / nr=0 / decimate=0 / interlaced=0 / 
constrained_intra=0 / bframes=10 /b_pyramid=2 / b_adapt=2 / b_bias=0 / 
direct=3 / weightb=1 / open_gop=0 / weightp=2 / keyint=250 / keyint_min=23 / 
scenecut=40 / intra_refresh=0 / rc_lookahead=50 / rc=2pass / mbtree=1 / 
bitrate=11444 / ratetol=1.0 / qcomp=0.80 / qpmin=10 / qpmax=51 / qpstep=4 / 
cplxblur=20.0 / qblur=0.5 / vbv_maxrate=38000 / vbv_bufsize=30000 / 
nal_hrd=none / ip_ratio=1.40 / aq=1:1.10

Language: English

Audio #1
ID: 2
Format : DTS
Format/Info: Digital Theater Systems
Codec ID: A_DTS
Duration: 2h 19mn
Bit rate mode: Constant
Bit Rate : 1 510 Kbps
Channel(s): 6 channels
Channel positions: Front: L C R, Side: L R, LFE
Sampling rate: 48.0 KHz
Bit depth: 24 bits
Compression mode: Lossy
Stream size: 1.47 GiB (11%)
Title : D-Z0N3 HD AUDIO @ DTS 1509 Kbps Core English DTSHD-MA
Language: English

Audio #2 - 5
ID: 3 - 6
Format: AC-3
Format/Info: Audio Coding 3
Mode extension: CM (complete main)
Codec ID: A_AC3
Duration: 2h 19mn
Bit rate mode: Constant
Bit rate: 64.0 Kbps
Channel(s): 2 channels
Channel positions: Front: L R
Sampling rate: 48.0 KHz
Bit depth: 16 bits
Compression mode : Lossy
Stream size : 63.7 MiB (0%)
Title: D-Z0N3 HD AUDIO @ 
1. AC3 64 Kbps 2 Chnls Director's Commentary
2. AC3 64 Kbps 2 Chnls Dir's Comm with Brad Pitt, Edward Norton & Helena Bonham
3. AC3 64 Kbps 2 Chnls Screenwriter & Novelist's Commentary
4. AC3 64 Kbps 2 Chnls Commentary by Director of Photography etc
Language: English

Text #1 - 18
ID: 7 - 24
Format: UTF-8
Codec ID: S_TEXT/UTF8
Codec ID/Info: UTF-8 Plain Text
Title : D-Z0N3 HD SUB
Language: Eng, Tur, Chs, Cze, Dut, Ger, Gre, Hun, Nor, Pol, Rum, Srp, Spa, Swe + 
1. Director's Commentary
2. Director's Commentary with Brad Pitt, Edward Norton, Helena Bonham
3. Screenwriter & Novelist's Commentary
4. Commentary by Director of Photography etc..

Menu
00:00:00.000: en: Fear Center (Main Titles)
00:02:08.378: en: Ground Zero
00:03:54.818: en: Insomnia
00:04:46.328: en: Nesting Instinct
00:06:21.923: en: Remaining Men Together
00:10:22.205: en: Power Animal
00:11:34.903: en: Marla
00:19:13.569: en: Single Serving Jack
00:21:41.175: en: Tyler
00:25:48.005: en: Jack's Nice Neat Flaming Shit
00:29:09.331: en: Lament for a Sofa
00:32:27.195: en: Odd Jobs
00:34:10.465: en: Hit Me
00:35:57.947: en: Paper Street
00:41:36.994: en: Welcome to Fight Club
00:47:18.961: en: Infectious Human Waste
00:48:37.873: en: Sport Fucking
01:00:18.281: en: Tyler's Secret Formula Soap
01:01:56.254: en: Chemical Burn
01:09:48.434: en: The Middle Children of History
01:14:57.952: en: Homework
01:15:47.626: en: Jack's Smirking Revenge
01:19:35.854: en: Project Mayhem
01:21:29.468: en: Human Sacrafice
01:27:38.545: en: Space Monkeys
01:35:36.981: en: Psycho Boy
01:37:48.071: en: A Near-Life Experience
01:41:26.789: en: Tyler Says Goodbye
01:45:07.468: en: Operation Latt Thunder
01:47:58.180: en: Deja Vu
01:50:34.878: en: Changeover
01:56:53.173: en: Mea Culpa
02:00:36.813: en: Castrating Cops
02:05:55.715: en: Kicking and Screaming
02:09:38.354: en: Walls of Jericho
02:15:53.979: en: End Credits


 
http://www.imagebam.com/image/683589120429097 
http://www.imagebam.com/image/4dc0ed120429100 
http://www.imagebam.com/image/bcc0ff120429105 
http://www.imagebam.com/image/0e7966120429110 
http://www.imagebam.com/image/924cc1120429114 
http://www.imagebam.com/image/8f153a120429118 
http://www.imagebam.com/image/c5d799120429123 
http://www.imagebam.com/image/1d6f7a120429131